<svg width="567" height="214" viewBox="0 0 567 214" fill="none" xmlns="http://www.w3.org/2000/svg">
<path d="M0 209.525V2.82104H36.709V88.94C41.504 81.093 47.887 74.965 55.922 70.555C64.152 65.951 73.516 63.681 84.046 63.681C101.639 63.681 115.214 69.226 124.772 80.347C134.525 91.436 139.417 107.713 139.417 129.146V209.525H103V132.583C103 120.326 100.505 110.956 95.548 104.438C90.752 97.921 83.106 94.679 72.608 94.679C62.111 94.679 53.687 98.31 46.786 105.573C40.079 112.836 36.742 122.985 36.742 136.02V209.525H0ZM226.444 212.962C212.09 212.962 199.39 209.915 188.309 203.786C177.228 197.658 168.512 189.033 162.194 177.944C155.876 166.855 152.734 154.015 152.734 139.489C152.734 124.963 155.779 111.637 161.903 100.158C168.221 88.68 176.807 79.764 187.726 73.473C198.806 66.956 211.831 63.714 226.735 63.714C240.7 63.714 253.044 66.762 263.736 72.89C274.46 79.018 282.755 87.448 288.684 98.148C294.808 108.686 297.853 120.456 297.853 133.458C297.853 135.566 297.756 137.771 297.562 140.073C297.562 142.375 297.464 144.774 297.27 147.238H189.151C189.929 158.328 193.752 167.05 200.621 173.372C207.684 179.695 216.205 182.84 226.152 182.84C233.604 182.84 239.825 181.219 244.782 177.944C249.934 174.507 253.757 170.098 256.252 164.748H293.544C290.855 173.729 286.384 181.965 280.066 189.422C273.942 196.685 266.296 202.425 257.126 206.64C248.152 210.855 237.913 212.962 226.444 212.962ZM226.735 93.544C217.76 93.544 209.822 96.138 202.921 101.293C196.02 106.254 191.646 113.939 189.734 124.25H260.593C260.01 114.879 256.576 107.422 250.258 101.845C243.94 96.3 236.099 93.512 226.735 93.512V93.544ZM311.558 209.525V2.82104H348.268V209.525H311.558ZM368.582 209.525V2.82104H405.292V209.525H368.582ZM493.873 212.962C480.103 212.962 467.662 209.817 456.581 203.495C445.662 197.172 436.979 188.482 430.466 177.361C424.148 166.077 421.006 153.042 421.006 138.322C421.006 123.601 424.246 110.664 430.758 99.575C437.27 88.291 445.954 79.472 456.872 73.149C467.953 66.826 480.395 63.681 494.165 63.681C507.935 63.681 519.988 66.826 530.874 73.149C541.955 79.472 550.67 88.259 556.988 99.575C563.501 110.664 566.741 123.601 566.741 138.322C566.741 153.042 563.501 166.077 556.988 177.361C550.67 188.45 541.987 197.172 530.874 203.495C519.793 209.817 507.449 212.962 493.873 212.962ZM493.873 181.089C503.431 181.089 511.758 177.555 518.821 170.454C525.884 163.191 529.448 152.459 529.448 138.289C529.448 124.12 525.917 113.517 518.821 106.416C511.758 99.153 503.528 95.522 494.165 95.522C484.801 95.522 475.988 99.153 468.925 106.416C462.024 113.485 458.59 124.12 458.59 138.289C458.59 152.459 462.024 163.159 468.925 170.454C475.988 177.523 484.315 181.089 493.873 181.089Z" fill="white"/>
<path d="M77.1439 51.749C70.9239 51.749 65.7719 50.225 61.7219 47.177C57.6719 44.129 55.3719 40.076 54.7559 35.051H65.3829C65.9019 37.32 67.1649 39.266 69.1739 40.919C71.1499 42.508 73.7749 43.319 77.0149 43.319C80.2549 43.319 82.5229 42.67 83.9809 41.341C85.4389 40.012 86.1839 38.488 86.1839 36.769C86.1839 34.24 85.1469 32.554 83.1059 31.678C81.1299 30.738 78.3429 29.928 74.7469 29.182C71.9599 28.598 69.1739 27.788 66.3879 26.782C63.6659 25.777 61.3979 24.383 59.5189 22.6C57.7369 20.752 56.8299 18.255 56.8299 15.142C56.8299 10.83 58.4819 7.231 61.7869 4.41C65.0919 1.492 69.7569 0.032 75.7189 0.032C81.2269 0.032 85.6659 1.362 89.0349 4.021C92.4699 6.679 94.5109 10.408 95.0939 15.272H84.9529C84.6289 13.164 83.6239 11.478 81.9719 10.311C80.3839 9.111 78.2139 8.528 75.4919 8.528C72.7699 8.528 70.7939 9.079 69.3359 10.214C67.8779 11.284 67.1329 12.678 67.1329 14.396C67.1329 16.115 68.1369 17.477 70.1139 18.482C72.1549 19.487 74.8439 20.362 78.1809 21.173C81.4859 21.919 84.5319 22.762 87.3179 23.767C90.1689 24.707 92.4699 26.102 94.1869 27.95C95.9039 29.798 96.7789 32.522 96.7789 36.121C96.8439 40.628 95.0939 44.389 91.4979 47.372C87.9979 50.355 83.1709 51.846 77.0799 51.846L77.1439 51.749ZM120.56 51.749C114.599 51.749 109.901 49.901 106.434 46.172C103.064 42.443 101.347 36.931 101.347 29.538V1.2H111.877V28.468C111.877 38.034 115.798 42.8 123.606 42.8C127.526 42.8 130.734 41.406 133.261 38.617C135.788 35.829 137.052 31.841 137.052 26.685V1.2H147.582V50.549H138.218L137.408 41.892C135.886 44.94 133.618 47.372 130.637 49.155C127.721 50.874 124.351 51.749 120.496 51.749H120.56ZM155.066 72.436V1.2H164.527L165.629 8.852C167.216 6.517 169.42 4.475 172.206 2.691C174.992 0.908 178.556 0 182.963 0C187.726 0 191.938 1.135 195.599 3.372C199.26 5.642 202.111 8.722 204.152 12.613C206.258 16.536 207.328 20.978 207.328 25.939C207.328 30.9 206.258 35.375 204.152 39.266C202.191 43.039 199.232 46.202 195.599 48.409C191.938 50.614 187.726 51.684 182.866 51.684C179.01 51.684 175.608 50.906 172.627 49.382C169.711 47.858 167.378 45.686 165.661 42.897V72.371H155.131L155.066 72.436ZM181.019 42.573C185.522 42.573 189.248 41.049 192.164 38.001C195.08 34.888 196.538 30.835 196.538 25.875C196.538 22.632 195.89 19.746 194.562 17.217C193.234 14.688 191.419 12.743 189.086 11.348C186.754 9.889 184.064 9.144 181.019 9.144C176.515 9.144 172.789 10.7 169.873 13.813C167.022 16.925 165.596 20.946 165.596 25.842C165.596 30.738 167.022 34.856 169.873 37.969C172.789 41.017 176.515 42.541 181.019 42.541V42.573ZM235.775 51.717C230.947 51.717 226.638 50.647 222.847 48.539C219.163 46.377 216.138 43.249 214.099 39.493C211.993 35.634 210.924 31.16 210.924 26.069C210.924 20.978 211.961 16.342 214.002 12.418C216.108 8.495 219.024 5.447 222.75 3.275C226.541 1.07 230.915 0 235.872 0C240.829 0 244.912 1.102 248.508 3.275C252.104 5.382 254.858 8.236 256.867 11.835C258.844 15.402 259.848 19.357 259.848 23.67C259.848 24.318 259.816 25.064 259.751 25.875C259.751 26.62 259.718 27.431 259.654 28.371H221.26C221.584 33.138 223.139 36.802 225.925 39.331C228.776 41.795 232.049 43.027 235.775 43.027C238.756 43.027 241.25 42.378 243.227 41.049C245.268 39.655 246.791 37.807 247.795 35.472H258.325C256.997 40.109 254.34 44 250.355 47.112C246.434 50.225 241.574 51.782 235.742 51.782L235.775 51.717ZM235.775 8.625C232.276 8.625 229.133 9.695 226.411 11.802C223.69 13.845 222.037 16.99 221.454 21.173H249.286C249.091 17.315 247.73 14.267 245.203 12.029C242.676 9.76 239.533 8.657 235.742 8.657L235.775 8.625ZM264.805 50.517V1.2H274.266L275.173 10.57C276.89 7.328 279.288 4.766 282.334 2.918C285.444 1.005 289.202 0.032 293.576 0.032V11.057H290.693C287.777 11.057 285.152 11.543 282.82 12.548C280.584 13.488 278.737 15.11 277.344 17.412C276.016 19.682 275.368 22.827 275.368 26.88V50.582H264.838L264.805 50.517Z" fill="white"/>
</svg>
